<svg width="23" height="23" viewBox="0 0 23 23" fill="none" xmlns="http://www.w3.org/2000/svg">
<path d="M16.7741 0H6.22588C2.79287 0 0 2.79287 0 6.22588V16.7743C0 20.2071 2.79287 23 6.22588 23H16.7743C20.2071 23 23 20.2071 23 16.7743V6.22588C23 2.79287 20.2071 0 16.7741 0V0ZM11.5 17.7889C8.03223 17.7889 5.2111 14.9677 5.2111 11.5C5.2111 8.03223 8.03223 5.2111 11.5 5.2111C14.9677 5.2111 17.7889 8.03223 17.7889 11.5C17.7889 14.9677 14.9677 17.7889 11.5 17.7889ZM17.9392 6.69422C16.9145 6.69422 16.0809 5.86071 16.0809 4.83594C16.0809 3.81116 16.9145 2.97747 17.9392 2.97747C18.964 2.97747 19.7977 3.81116 19.7977 4.83594C19.7977 5.86071 18.964 6.69422 17.9392 6.69422Z" fill="black"/>
<path d="M11.4998 6.55957C8.77576 6.55957 6.55933 8.77583 6.55933 11.5001C6.55933 14.2242 8.77576 16.4406 11.4998 16.4406C14.2241 16.4406 16.4404 14.2242 16.4404 11.5001C16.4404 8.77583 14.2241 6.55957 11.4998 6.55957Z" fill="black"/>
<path d="M17.9394 4.32593C17.6583 4.32593 17.4294 4.55475 17.4294 4.83586C17.4294 5.11697 17.6583 5.34579 17.9394 5.34579C18.2207 5.34579 18.4495 5.11715 18.4495 4.83586C18.4495 4.55457 18.2207 4.32593 17.9394 4.32593Z" fill="black"/>
</svg>
